<?xml version="1.0" standalone="no"?>
<!DOCTYPE svg PUBLIC "-//W3C//DTD SVG 20010904//EN"
 "http://www.w3.org/TR/2001/REC-SVG-20010904/DTD/svg10.dtd">
<svg version="1.0" xmlns="http://www.w3.org/2000/svg"
 width="500.000000pt" height="500.000000pt" viewBox="0 0 500.000000 500.000000"
 preserveAspectRatio="xMidYMid meet">
<metadata>
Created by potrace 1.14, written by Peter Selinger 2001-2017
</metadata>
<g transform="translate(0.000000,500.000000) scale(0.100000,-0.100000)"
fill="#000000" stroke="none">
<path d="M2308 4995 c-1 -2 -32 -6 -68 -9 -80 -6 -122 -13 -225 -32 -982 -187
-1765 -964 -1964 -1949 -37 -185 -46 -283 -45 -510 0 -219 5 -267 44 -480 17
-94 50 -215 89 -325 126 -361 317 -666 586 -936 298 -299 619 -496 1016 -622
53 -17 107 -33 120 -36 13 -2 42 -9 64 -14 42 -12 76 -18 135 -28 19 -3 46 -7
60 -10 31 -5 86 -12 165 -20 73 -8 356 -11 370 -4 6 2 26 5 45 7 19 1 55 5 80
9 25 4 59 8 75 10 147 15 454 102 605 170 222 101 436 230 579 349 277 229
483 480 645 786 77 146 169 381 201 514 64 266 79 391 79 650 0 160 -4 221
-21 340 -4 28 -8 58 -9 68 -1 9 -3 20 -4 25 -1 4 -2 10 -2 13 2 12 -66 271
-86 334 -91 272 -249 560 -435 790 -296 365 -708 647 -1160 794 -154 50 -256
72 -487 106 -40 6 -446 15 -452 10z"/>
</g>
</svg>
